<svg width="118" height="30" fill="none" xmlns="http://www.w3.org/2000/svg"><path d="M30.003 13.352v2.472c0 4.313-1.356 7.761-4.067 10.344-2.683 2.555-6.1 3.832-10.25 3.832-4.51 0-8.258-1.442-11.246-4.327C1.48 22.79 0 19.245 0 15.041c0-4.203 1.466-7.76 4.399-10.673C7.359 1.456 10.969 0 15.229 0c2.712 0 5.188.604 7.429 1.813 2.268 1.209 4.025 2.802 5.27 4.78l-5.644 3.215c-.636-.99-1.59-1.8-2.863-2.432-1.245-.631-2.656-.947-4.233-.947-2.462 0-4.51.81-6.141 2.43-1.605 1.622-2.407 3.696-2.407 6.223 0 2.5.83 4.547 2.49 6.14 1.66 1.566 3.873 2.35 6.64 2.35 3.845 0 6.32-1.484 7.427-4.451h-7.76v-5.77h14.566ZM44.743.577c2.85 0 5.257.961 7.22 2.885 1.965 1.923 2.947 4.258 2.947 7.005s-.982 5.082-2.946 7.005c-1.964 1.924-4.371 2.885-7.22 2.885h-4.358v9.066h-6.64V.577h10.997Zm0 13.599c1.024 0 1.868-.357 2.532-1.072.663-.714.995-1.593.995-2.637s-.332-1.923-.995-2.637c-.664-.715-1.508-1.072-2.532-1.072h-4.357v7.418h4.357ZM77.322.577v6.346h-7.47v22.5h-6.639v-22.5h-7.47V.577h21.58Zm.84 19.492v-5.934h15.77v5.934h-15.77Zm33.655-7.789c1.853.632 3.347 1.662 4.482 3.09 1.134 1.402 1.701 3.064 1.701 4.987 0 3.022-1.024 5.385-3.071 7.088-2.047 1.703-4.551 2.555-7.511 2.555-2.296 0-4.357-.522-6.183-1.566-1.798-1.044-3.126-2.582-3.984-4.615l5.727-3.297c.719 2.033 2.199 3.05 4.44 3.05 1.3 0 2.282-.303 2.946-.907.664-.605.996-1.374.996-2.308 0-.934-.332-1.703-.996-2.308-.664-.604-1.646-.906-2.946-.906h-1.369l-2.532-3.75 5.27-6.635H98.164V.577h18.674v5.357l-5.021 6.346Z" fill="#fff"/></svg>